<?xml version="1.0" encoding="utf-8"?>
<!-- Generator: $$$/GeneralStr/196=Adobe Illustrator 27.6.0, SVG Export Plug-In . SVG Version: 6.00 Build 0)  -->
<svg version="1.1" id="Calque_1" xmlns="http://www.w3.org/2000/svg" xmlns:xlink="http://www.w3.org/1999/xlink" x="0px" y="0px"
	 viewBox="0 0 100 100" style="enable-background:new 0 0 100 100;" xml:space="preserve">
<style type="text/css">
	.st0{display:none;}
	.st1{display:inline;fill:#FFFFFF;}
	.st2{display:inline;}
	.st3{enable-background:new    ;}
</style>
<g class="st0">
	<circle class="st1" cx="50" cy="50" r="47.5"/>
	<path class="st2" d="M50,3c25.9,0,47,21.1,47,47S75.9,97,50,97S3,75.9,3,50S24.1,3,50,3 M50,2C23.5,2,2,23.5,2,50s21.5,48,48,48
		s48-21.5,48-48S76.5,2,50,2L50,2z"/>
</g>
<g class="st3">
	<path d="M29.5,32.8L11.4,43.4l18.1,10.3l-4,6.3L3.9,46.6v-6.3l21.7-13.5L29.5,32.8z"/>
	<path d="M55.2,60.8c-2.6,7.8-7.6,11.9-16.5,12.4l-1-6.2c5.8-0.7,7.9-2.4,9.5-6.2h-3.1l-9.3-29.5h9.3l5.7,23.9l6.2-23.9h9L55.2,60.8
		z"/>
	<path d="M96.1,40.2v6.3L74.5,60l-3.9-6l18-10.6l-18-10.3l3.9-6.3L96.1,40.2z"/>
</g>
</svg>
