<?xml version="1.0" encoding="utf-8"?>
<!-- Generator: $$$/GeneralStr/196=Adobe Illustrator 27.6.0, SVG Export Plug-In . SVG Version: 6.00 Build 0)  -->
<svg version="1.1" id="Calque_1" xmlns="http://www.w3.org/2000/svg" xmlns:xlink="http://www.w3.org/1999/xlink" x="0px" y="0px"
	 viewBox="0 0 24 24" style="enable-background:new 0 0 24 24;" xml:space="preserve">
<style type="text/css">
	.st0{fill:#607B96;}
</style>
<path class="st0" d="M3.1,1.8c-0.7,0-1.3,0.6-1.3,1.3v17.8c0,0.7,0.6,1.3,1.3,1.3h17.8c0.7,0,1.3-0.6,1.3-1.3V3.1
	c0-0.7-0.6-1.3-1.3-1.3H3.1z M3.1,2.8h17.8c0.2,0,0.3,0.1,0.3,0.3v17.8c0,0.2-0.1,0.3-0.3,0.3H3.1c-0.2,0-0.3-0.1-0.3-0.3V3.1
	C2.8,2.9,2.9,2.8,3.1,2.8z M11,11v6.1c0,0.9-0.4,1.2-1,1.2c-0.6,0-1.1-0.4-1.4-0.9l-1.5,0.9c0.4,0.9,1.5,1.9,3,1.9
	c1.7,0,2.8-0.9,2.8-2.8V11H11z M17.1,11c-1.6,0-2.7,1.1-2.7,2.4c0,1.5,0.9,2.2,2.2,2.8l0.5,0.2c0.8,0.4,1.3,0.6,1.3,1.2
	c0,0.5-0.4,0.9-1.2,0.9c-0.9,0-1.3-0.6-1.7-1.3l-1.5,1c0.5,1.1,1.5,1.9,3.2,1.9c1.8,0,3.1-0.9,3.1-2.6c0-1.5-0.9-2.2-2.5-2.9
	l-0.5-0.2c-0.8-0.3-1.1-0.6-1.1-1.1c0-0.4,0.3-0.8,0.9-0.8c0.5,0,0.9,0.2,1.2,0.8l1.4-0.9C19.1,11.4,18.2,11,17.1,11z"/>
</svg>
