<?xml version="1.0" encoding="UTF-8"?>
<svg id="Calque_1" xmlns="http://www.w3.org/2000/svg" version="1.1" viewBox="0 0 150 150">
  <!-- Generator: Adobe Illustrator 29.6.0, SVG Export Plug-In . SVG Version: 2.1.1 Build 207)  -->
  <defs>
    <style>
      .st0 {
        fill: #607b96;
      }
    </style>
  </defs>
  <path class="st0" d="M59.9,12.1c21.6,0,63.9,1.1,63.9,43.9s-39.8,46.1-64.5,46.1v35.7H26.2V12.1h33.7ZM84.4,73.5h-25.5l2.2,8.4h23.3c2.3,0,4.2-1.9,4.2-4.2s-1.9-4.2-4.2-4.2ZM90.7,63.2h-11.3l2.2,8.4h9.1c2.3,0,4.2-1.9,4.2-4.2s-1.9-4.2-4.2-4.2ZM84,52.9h-25.5l2.2,8.4h23.3c2.3,0,4.2-1.9,4.2-4.2s-1.9-4.2-4.2-4.2ZM63.1,42.6h-8.4l-2.7,8.4h11.1c2.3,0,4.2-1.9,4.2-4.2s-1.9-4.2-4.2-4.2ZM84.8,32.3h-23.7l-2.7,8.4h26.3c2.3,0,4.2-1.9,4.2-4.2s-1.9-4.2-4.2-4.2Z"/>
</svg>