<?xml version="1.0" encoding="utf-8"?>
<!-- Generator: $$$/GeneralStr/196=Adobe Illustrator 27.6.0, SVG Export Plug-In . SVG Version: 6.00 Build 0)  -->
<svg version="1.1" id="Calque_1" xmlns="http://www.w3.org/2000/svg" xmlns:xlink="http://www.w3.org/1999/xlink" x="0px" y="0px"
	 viewBox="0 0 27 27" style="enable-background:new 0 0 27 27;" xml:space="preserve">
<style type="text/css">
	.st0{fill:#607B96;}
</style>
<path class="st0" d="M13.5,6.7c-3.4,0-6.5,0.7-8.7,1.9S1,11.5,1,13.5s1.5,3.7,3.8,4.9s5.3,1.9,8.7,1.9s6.5-0.7,8.7-1.9
	s3.8-2.9,3.8-4.9s-1.5-3.7-3.8-4.9S16.9,6.7,13.5,6.7z M13.5,7.8c3.2,0,6.2,0.7,8.2,1.8c2.1,1.1,3.2,2.5,3.2,4s-1.2,2.9-3.2,4
	c-2.1,1.1-5,1.8-8.2,1.8s-6.2-0.7-8.2-1.8C3.2,16.4,2,15,2,13.5s1.2-2.9,3.2-4C7.3,8.5,10.3,7.8,13.5,7.8z M12.2,8.8l-1.3,6.3h1.4
	l0.7-3.1H14c0.3,0,0.6,0.1,0.7,0.2c0.1,0.1,0.1,0.3,0.1,0.7l-0.5,2.3h1.4l0.5-2.5c0.1-0.6,0-1-0.3-1.3c-0.3-0.3-0.8-0.4-1.6-0.4
	h-1.2l0.4-2.1H12.2z M6.2,10.9l-1.1,5.7h1.4l0.3-1.6h0.9c1.8,0,2.8-0.4,3.1-2c0.3-1.3-0.5-2.2-1.8-2.2H6.2z M17.1,10.9l-1.1,5.7h1.4
	l0.3-1.6h0.9c1.8,0,2.8-0.4,3.1-2c0.3-1.3-0.5-2.2-1.8-2.2H17.1z M7.4,11.9h1.1c0.9,0,1.1,0.4,1,0.8C9.4,13.9,8.7,14,7.9,14H7
	L7.4,11.9z M18.3,11.9h1.1c0.9,0,1.1,0.4,1,0.8c-0.1,1.2-0.8,1.2-1.6,1.2h-0.9L18.3,11.9z"/>
</svg>
