<?xml version="1.0" encoding="utf-8"?>
<!-- Generator: $$$/GeneralStr/196=Adobe Illustrator 27.6.0, SVG Export Plug-In . SVG Version: 6.00 Build 0)  -->
<svg version="1.1" id="Calque_1" xmlns="http://www.w3.org/2000/svg" xmlns:xlink="http://www.w3.org/1999/xlink" x="0px" y="0px"
	 viewBox="0 0 24 24" style="enable-background:new 0 0 24 24;" xml:space="preserve">
<style type="text/css">
	.st0{fill:#607B96;}
</style>
<path class="st0" d="M4.5,2.5c-1.2,0-2.1,0.9-2.1,2.1v11.2c0,1.2,0.9,2.1,2.1,2.1h11.2c1.2,0,2.1-0.9,2.1-2.1v-10L17,6.6v9.1
	c0,0.7-0.5,1.2-1.2,1.2H4.5c-0.7,0-1.2-0.5-1.2-1.2V4.5c0-0.7,0.5-1.2,1.2-1.2h10.9l0.7-0.8c-0.2,0-0.3,0-0.5,0H4.5z M16.7,3.9
	l-7.2,8l-3.4-3L5.5,9.4l3.7,3.3L9.6,13l0.3-0.3l7.5-8.3L16.7,3.9z M18.6,6.2V7h0.8c0.7,0,1.2,0.5,1.2,1.2v11.2
	c0,0.7-0.5,1.2-1.2,1.2H8.3c-0.7,0-1.2-0.5-1.2-1.2v-0.8H6.2v0.8c0,1.2,0.9,2.1,2.1,2.1h11.2c1.2,0,2.1-0.9,2.1-2.1V8.3
	c0-1.2-0.9-2.1-2.1-2.1H18.6z"/>
</svg>
