<?xml version="1.0" encoding="utf-8"?>
<!-- Generator: $$$/GeneralStr/196=Adobe Illustrator 27.6.0, SVG Export Plug-In . SVG Version: 6.00 Build 0)  -->
<svg version="1.1" id="Calque_1" xmlns="http://www.w3.org/2000/svg" xmlns:xlink="http://www.w3.org/1999/xlink" x="0px" y="0px"
	 viewBox="0 0 24 24" style="enable-background:new 0 0 24 24;" xml:space="preserve">
<style type="text/css">
	.st0{fill:#607B96;}
</style>
<g>
	<path class="st0" d="M3.7,12c0,3.3,1.9,6.1,4.7,7.5l-4-10.8C4,9.7,3.7,10.8,3.7,12z"/>
	<path class="st0" d="M17.6,11.6c0-1-0.4-1.7-0.7-2.3c-0.4-0.7-0.8-1.3-0.8-1.9c0-0.8,0.6-1.5,1.4-1.5c0,0,0.1,0,0.1,0
		c-1.5-1.4-3.4-2.2-5.6-2.2c-2.9,0-5.4,1.5-6.9,3.7c0.2,0,0.4,0,0.5,0c0.9,0,2.2-0.1,2.2-0.1C8.3,7.3,8.3,8,7.9,8
		c0,0-0.4,0.1-0.9,0.1l3,9l1.8-5.4l-1.3-3.5C10,8.1,9.6,8,9.6,8C9.1,8,9.2,7.3,9.6,7.4c0,0,1.4,0.1,2.2,0.1c0.9,0,2.2-0.1,2.2-0.1
		c0.4,0,0.5,0.6,0.1,0.7c0,0-0.5,0.1-0.9,0.1l3,8.9l0.8-2.8C17.3,13.1,17.6,12.3,17.6,11.6z"/>
	<path class="st0" d="M12.1,12.7L9.7,20c0.7,0.2,1.5,0.3,2.3,0.3c1,0,1.9-0.2,2.8-0.5c0,0,0-0.1-0.1-0.1L12.1,12.7z"/>
	<path class="st0" d="M19.3,8c0,0.3,0.1,0.5,0.1,0.9c0,0.8-0.2,1.8-0.6,3l-2.5,7.3c2.5-1.4,4.1-4.1,4.1-7.2
		C20.3,10.6,19.9,9.2,19.3,8z"/>
	<path class="st0" d="M12,2.3c-5.3,0-9.7,4.3-9.7,9.7c0,5.3,4.3,9.7,9.7,9.7c5.3,0,9.7-4.3,9.7-9.7C21.7,6.7,17.3,2.3,12,2.3z
		 M12,21.2c-5.1,0-9.2-4.1-9.2-9.2c0-5.1,4.1-9.2,9.2-9.2c5.1,0,9.2,4.1,9.2,9.2C21.2,17.1,17.1,21.2,12,21.2z"/>
</g>
</svg>
