<?xml version="1.0" encoding="utf-8"?>
<!-- Generator: $$$/GeneralStr/196=Adobe Illustrator 27.6.0, SVG Export Plug-In . SVG Version: 6.00 Build 0)  -->
<svg version="1.1" id="Calque_1" xmlns="http://www.w3.org/2000/svg" xmlns:xlink="http://www.w3.org/1999/xlink" x="0px" y="0px"
	 viewBox="0 0 27 27" style="enable-background:new 0 0 27 27;" xml:space="preserve">
<style type="text/css">
	.st0{fill:#607B96;}
</style>
<path class="st0" d="M13.6,1.8C7.1,1.8,1.8,7.1,1.8,13.6s5.3,11.8,11.8,11.8s11.8-5.3,11.8-11.8S20.1,1.8,13.6,1.8z M20.3,8.4
	c-0.6,0-1-0.3-1-0.8c0-0.4,0.3-0.7,0.3-0.8c0-0.3-0.5-0.3-0.6-0.3c-1.9,0.1-2.3,2.4-2.7,4.4l-0.2,0.8c1.1,0.2,1.8,0,2.3-0.3
	c0.6-0.4-0.1-0.7-0.1-1.1c0-0.6,0.5-0.8,0.8-0.8c0.5,0,0.9,0.5,0.9,1.1c0,0.8-1.3,1.9-3.4,1.9c-0.3,0-0.5,0-0.7,0l-0.4,2.2
	c-0.4,1.6-0.8,3.9-2.5,5.8c-1.4,1.7-2.9,2-3.6,2c-1.2,0-2.4-0.7-2.4-1.6c0-0.8,0.7-1.4,1.2-1.4c0.7,0,1.1,0.5,1.2,1.1
	c0,0.5-0.2,0.6-0.4,0.7c-0.1,0.1-0.3,0.2-0.3,0.4c0,0.1,0.1,0.3,0.4,0.3c0.5,0,1-0.1,1.4-0.4c1.2-1,1.6-2.6,2.2-5.7l0.1-0.8
	c0.2-1,0.5-2.4,0.9-3.5c-0.8-0.6-1.3-1.4-2.5-1.7c-0.8-0.2-1.1-0.1-1.5,0.3c-0.2,0.2-0.2,0.5-0.2,0.7c0,0.9,1.8,2.8,1.8,3.9
	c0,0.1,0,0.3,0,0.4c-0.3,1.5-2,2.6-4.1,2c-1.8-0.5-2.2-1.8-2-2.5c0.2-0.6,0.8-0.8,1.2-0.7c0.5,0.2,0.7,0.8,0.5,1.4
	c0,0,0,0.1-0.1,0.2c-0.1,0.1-0.2,0.2-0.2,0.4c-0.1,0.4,0.4,0.6,0.8,0.7c0.8,0.2,1.6-0.2,1.8-0.8c0.2-0.6-0.1-1-0.2-1.2
	c0,0-1.5-1.9-1.5-3c0-0.2,0-0.5,0.1-0.7c0.1-0.5,0.4-1,0.9-1.3c0.9-0.7,1.8-0.8,2.8-0.5c1.2,0.4,1.8,1.1,2.6,1.8
	c0.4-1.3,0.9-2.1,1.8-3.2c0.8-0.9,1.9-1.6,3.2-1.7c1.3,0,2.2,0.5,2.2,1.4C21.2,7.7,21,8.4,20.3,8.4z"/>
</svg>
